<svg version="1.0" xmlns="http://www.w3.org/2000/svg" width="70.000000pt" height="72.000000pt" viewBox="0 0 70.000000 70.000000" preserveAspectRatio="xMidYMid meet" style="width: 423.375px; height: auto;"> <g transform="translate(0.000000,72.000000) scale(0.100000,-0.100000)" fill="#000000" stroke="none"> <path d="M409 447 c-156 -165 -171 -184 -201 -251 -17 -40 -35 -66 -52 -74 -14 -7 -26 -21 -26 -30 0 -15 23 -17 255 -20 l255 -3 0 27 0 27 -205 -5 c-113 -4 -207 -2 -210 2 -3 5 12 14 32 20 21 6 52 18 68 25 17 8 90 77 164 155 l133 141 -50 49 c-28 28 -52 50 -54 50 -2 -1 -51 -51 -109 -113z m144 31 c16 -16 15 -19 -25 -60 -24 -24 -78 -82 -122 -128 l-79 -84 -23 27 -23 27 82 83 c45 46 99 103 121 126 21 24 41 39 45 34 3 -4 14 -16 24 -25z m-253 -283 c0 -18 -37 -25 -50 -10 -8 10 -8 19 2 34 11 19 14 19 30 4 10 -9 18 -22 18 -28z"></path>        </g> </svg>
